<svg height="512pt" viewBox="0 0 512 512" width="512pt" xmlns="http://www.w3.org/2000/svg"><path d="m511.996094 256c0 141.382812-114.613282 255.996094-255.996094 255.996094-141.386719 0-256-114.613282-256-255.996094 0-141.386719 114.613281-256 256-256 141.382812 0 255.996094 114.613281 255.996094 256zm0 0" fill="#efe2dd"/><path d="m512 256c0 141.386719-114.613281 256-256 256-83.417969 0-157.515625-39.890625-204.253906-101.648438 46.316406 46.277344 110.292968 74.886719 180.929687 74.886719 141.386719 0 256-114.617187 256-256 0-57.980469-19.277343-111.464843-51.777343-154.382812 46.398437 46.335937 75.101562 110.382812 75.101562 181.144531zm0 0" fill="#e1d3ce"/><path d="m466.101562 109.695312c-13.34375 24.738282-39.5 41.542969-69.578124 41.542969-43.648438 0-79.023438-35.375-79.023438-79.023437 0-22.582032 9.472656-42.949219 24.667969-57.351563 50.546875 18.066407 93.753906 51.5625 123.933593 94.832031zm0 0" fill="#cdbfba"/><path d="m466.101562 109.695312c-13.34375 24.738282-39.5 41.542969-69.578124 41.542969-32.707032 0-60.761719-19.851562-72.773438-48.164062 14.476562 16.261719 35.5625 26.503906 59.046875 26.503906 29.164063 0 54.644531-15.800781 68.328125-39.308594 5.296875 6.222657 10.296875 12.710938 14.976562 19.425781zm0 0" fill="#b9acac"/><path d="m260.894531 109.664062c0 22.960938-18.613281 41.574219-41.570312 41.574219-22.960938 0-41.574219-18.613281-41.574219-41.574219 0-22.957031 18.613281-41.570312 41.574219-41.570312 22.957031 0 41.570312 18.613281 41.570312 41.570312zm0 0" fill="#cdbfba"/><path d="m260.894531 109.664062c0 22.964844-18.609375 41.574219-41.574219 41.574219-10.882812 0-20.789062-4.175781-28.199218-11.023437 4.320312 1.527344 8.980468 2.359375 13.828125 2.359375 22.964843 0 41.574219-18.609375 41.574219-41.574219 0-12.09375-5.164063-22.972656-13.40625-30.558594 16.179687 5.6875 27.777343 21.105469 27.777343 39.222656zm0 0" fill="#b9acac"/><path d="m447.902344 325.808594c0 13.097656-10.617188 23.71875-23.714844 23.71875s-23.714844-10.621094-23.714844-23.71875 10.617188-23.714844 23.714844-23.714844 23.714844 10.617188 23.714844 23.714844zm0 0" fill="#cdbfba"/><path d="m447.902344 325.816406c0 13.085938-10.617188 23.710938-23.714844 23.710938-7.675781 0-14.492188-3.644532-18.835938-9.300782 1.746094.421876 3.574219.636719 5.453126.636719 13.097656 0 23.710937-10.625 23.710937-23.722656 0-5.417969-1.816406-10.417969-4.867187-14.414063 10.472656 2.464844 18.253906 11.867188 18.253906 23.089844zm0 0" fill="#b9acac"/><path d="m288.058594 212.351562c0 9.328126-7.5625 16.886719-16.886719 16.886719-9.328125 0-16.890625-7.558593-16.890625-16.886719 0-9.328124 7.5625-16.886718 16.890625-16.886718 9.324219 0 16.886719 7.558594 16.886719 16.886718zm0 0" fill="#cdbfba"/><path d="m262.320312 359.648438c0 18.691406-15.148437 33.839843-33.839843 33.839843-18.6875 0-33.839844-15.148437-33.839844-33.839843 0-18.6875 15.152344-33.839844 33.839844-33.839844 18.691406 0 33.839843 15.152344 33.839843 33.839844zm0 0" fill="#cdbfba"/><path d="m262.320312 359.648438c0 18.695312-15.148437 33.835937-33.832031 33.835937-8.953125 0-17.101562-3.480469-23.148437-9.15625 1.785156.285156 3.621094.441406 5.488281.441406 18.695313 0 33.835937-15.152343 33.835937-33.84375 0-9.734375-4.105468-18.5-10.675781-24.660156 16.066407 2.617187 28.332031 16.570313 28.332031 33.382813zm0 0" fill="#b9acac"/><g fill="#cdbfba"><path d="m149.539062 374.878906c0 9.328125-7.5625 16.886719-16.886718 16.886719-9.328125 0-16.890625-7.558594-16.890625-16.886719s7.5625-16.886718 16.890625-16.886718c9.324218 0 16.886718 7.558593 16.886718 16.886718zm0 0"/><path d="m378.074219 195.464844c0 5.09375-4.128907 9.226562-9.222657 9.226562-5.097656 0-9.226562-4.132812-9.226562-9.226562s4.128906-9.226563 9.226562-9.226563c5.09375 0 9.222657 4.132813 9.222657 9.226563zm0 0"/><path d="m186.976562 246.773438c0 5.09375-4.132812 9.226562-9.226562 9.226562s-9.226562-4.132812-9.226562-9.226562 4.132812-9.222657 9.226562-9.222657 9.226562 4.128907 9.226562 9.222657zm0 0"/><path d="m401.027344 246.074219c0 5.09375-4.132813 9.226562-9.226563 9.226562s-9.226562-4.132812-9.226562-9.226562 4.132812-9.222657 9.226562-9.222657 9.226563 4.128907 9.226563 9.222657zm0 0"/><path d="m134.214844 151.238281c0 5.09375-4.132813 9.226563-9.226563 9.226563s-9.222656-4.132813-9.222656-9.226563 4.128906-9.222656 9.222656-9.222656 9.226563 4.128906 9.226563 9.222656zm0 0"/></g></svg>